<svg viewBox="0 0 632 430" fill="none" xmlns="http://www.w3.org/2000/svg">
<g clip-path="url(#clip0_202_16)">
<path d="M530.69 0H0V285.426H530.69V0Z" fill="#3F3D56"/>
<path d="M100.616 40.2403H95.9361V47.7269H100.616V40.2403Z" fill="#6C63FF"/>
<path d="M116.527 38.3687H111.847V45.8553H116.527V38.3687Z" fill="#6C63FF"/>
<path d="M124.951 38.3687H120.271V45.8553H124.951V38.3687Z" fill="#6C63FF"/>
<path d="M124.951 60.8284H120.271V68.315H124.951V60.8284Z" fill="#6C63FF"/>
<path d="M134.31 49.5985H129.631V57.0851H134.31V49.5985Z" fill="#6C63FF"/>
<path d="M134.31 61.7642H129.631V69.2508H134.31V61.7642Z" fill="#6C63FF"/>
<path d="M124.951 85.1598H120.271V92.6463H124.951V85.1598Z" fill="#6C63FF"/>
<path d="M134.31 97.3254H129.631V104.812H134.31V97.3254Z" fill="#6C63FF"/>
<path d="M124.951 143.181H120.271V150.667H124.951V143.181Z" fill="#6C63FF"/>
<path d="M116.527 97.3254H111.847V104.812H116.527V97.3254Z" fill="#6C63FF"/>
<path d="M100.616 52.406H95.9361V59.8926H100.616V52.406Z" fill="#6C63FF"/>
<path d="M100.616 169.384H95.9361V176.87H100.616V169.384Z" fill="#6C63FF"/>
<path d="M100.616 193.715H95.9361V201.202H100.616V193.715Z" fill="#6C63FF"/>
<path d="M100.616 205.881H95.9361V213.367H100.616V205.881Z" fill="#6C63FF"/>
<path d="M100.616 65.5075H94.0641V66.4433H100.616V65.5075Z" fill="#6C63FF"/>
<path d="M125.887 76.7374H119.335V77.6732H125.887V76.7374Z" fill="#6C63FF"/>
<path d="M100.616 125.4H94.0641V126.336H100.616V125.4Z" fill="#6C63FF"/>
<path d="M100.616 135.694H94.0641V136.63H100.616V135.694Z" fill="#6C63FF"/>
<path d="M125.887 195.587H119.335V196.522H125.887V195.587Z" fill="#6C63FF"/>
<path d="M118.399 218.046H111.847V218.982H118.399V218.046Z" fill="#6C63FF"/>
<path d="M95.9361 73.9301V75.8015H97.8077V79.5449H95.9361V81.4163H100.616V73.9301H95.9361Z" fill="#6C63FF"/>
<path d="M111.848 60.8286V62.7H113.719V66.4434H111.848V68.3148H116.527V60.8286H111.848Z" fill="#6C63FF"/>
<path d="M129.631 72.9939V74.8658H131.503V78.6092H129.631V80.4806H134.311V72.9939H129.631Z" fill="#6C63FF"/>
<path d="M129.631 109.491V111.363H131.503V115.106H129.631V116.978H134.311V109.491H129.631Z" fill="#6C63FF"/>
<path d="M129.631 121.657V123.529H131.503V127.272H129.631V129.143H134.311V121.657H129.631Z" fill="#6C63FF"/>
<path d="M129.631 84.224V86.0954H131.503V89.8388H129.631V91.7108H134.311V84.224H129.631Z" fill="#6C63FF"/>
<path d="M120.271 49.5985V51.4705H122.143V55.2132H120.271V57.0852H124.951V49.5985H120.271Z" fill="#6C63FF"/>
<path d="M124.951 109.491H120.271V116.978H124.951V109.491Z" fill="#6C63FF"/>
<path d="M124.951 131.951H120.271V139.437H124.951V131.951Z" fill="#6C63FF"/>
<path d="M120.271 120.721V122.592H122.143V126.336H120.271V128.208H124.951V120.721H120.271Z" fill="#6C63FF"/>
<path d="M111.848 72.9939V74.8658H113.719V78.6092H111.848V80.4806H116.527V72.9939H111.848Z" fill="#6C63FF"/>
<path d="M111.848 85.1597V87.0317H113.719V90.7745H111.848V92.6465H116.527V85.1597H111.848Z" fill="#6C63FF"/>
<path d="M116.527 121.657H111.847V129.143H116.527V121.657Z" fill="#6C63FF"/>
<path d="M111.848 109.491V111.363H113.719V115.106H111.848V116.978H116.527V109.491H111.848Z" fill="#6C63FF"/>
<path d="M116.527 145.988H111.847V153.475H116.527V145.988Z" fill="#6C63FF"/>
<path d="M111.848 133.822V135.694H113.719V139.437H111.848V141.309H116.527V133.822H111.848Z" fill="#6C63FF"/>
<path d="M116.527 170.32H111.847V177.806H116.527V170.32Z" fill="#6C63FF"/>
<path d="M124.951 168.448H120.271V175.934H124.951V168.448Z" fill="#6C63FF"/>
<path d="M111.848 158.154V160.026H113.719V163.769H111.848V165.64H116.527V158.154H111.848Z" fill="#6C63FF"/>
<path d="M129.631 158.154V160.026H131.503V163.769H129.631V165.64H134.311V158.154H129.631Z" fill="#6C63FF"/>
<path d="M182.045 49.5985H177.365V57.0851H182.045V49.5985Z" fill="#6C63FF"/>
<path d="M182.045 61.7642H177.365V69.2508H182.045V61.7642Z" fill="#6C63FF"/>
<path d="M182.045 97.3254H177.365V104.812H182.045V97.3254Z" fill="#6C63FF"/>
<path d="M177.365 72.9939V74.8658H179.237V78.6092H177.365V80.4806H182.044V72.9939H177.365Z" fill="#6C63FF"/>
<path d="M177.365 109.491V111.363H179.237V115.106H177.365V116.978H182.044V109.491H177.365Z" fill="#6C63FF"/>
<path d="M177.365 121.657V123.529H179.237V127.272H177.365V129.143H182.044V121.657H177.365Z" fill="#6C63FF"/>
<path d="M177.365 84.224V86.0954H179.237V89.8388H177.365V91.7108H182.044V84.224H177.365Z" fill="#6C63FF"/>
<path d="M177.365 158.154V160.026H179.237V163.769H177.365V165.64H182.044V158.154H177.365Z" fill="#6C63FF"/>
<path d="M116.527 194.651H111.847V202.137H116.527V194.651Z" fill="#6C63FF"/>
<path d="M124.951 180.614H120.271V188.1H124.951V180.614Z" fill="#6C63FF"/>
<path d="M116.527 226.469H111.847V233.955H116.527V226.469Z" fill="#6C63FF"/>
<path d="M124.951 204.009H120.271V211.496H124.951V204.009Z" fill="#6C63FF"/>
<path d="M111.848 182.485V184.357H113.719V188.1H111.848V189.972H116.527V182.485H111.848Z" fill="#6C63FF"/>
<path d="M111.848 239.57V241.442H113.719V245.185H111.848V247.057H116.527V239.57H111.848Z" fill="#6C63FF"/>
<path d="M168.005 38.3687H163.325V45.8553H168.005V38.3687Z" fill="#6C63FF"/>
<path d="M168.005 97.3254H163.325V104.812H168.005V97.3254Z" fill="#6C63FF"/>
<path d="M169.877 218.046H163.325V218.982H169.877V218.046Z" fill="#6C63FF"/>
<path d="M163.325 60.8286V62.7H165.198V66.4434H163.325V68.3148H168.005V60.8286H163.325Z" fill="#6C63FF"/>
<path d="M163.325 72.9939V74.8658H165.198V78.6092H163.325V80.4806H168.005V72.9939H163.325Z" fill="#6C63FF"/>
<path d="M163.325 85.1597V87.0317H165.198V90.7745H163.325V92.6465H168.005V85.1597H163.325Z" fill="#6C63FF"/>
<path d="M168.005 121.657H163.325V129.143H168.005V121.657Z" fill="#6C63FF"/>
<path d="M163.325 109.491V111.363H165.198V115.106H163.325V116.978H168.005V109.491H163.325Z" fill="#6C63FF"/>
<path d="M168.005 145.988H163.325V153.475H168.005V145.988Z" fill="#6C63FF"/>
<path d="M163.325 133.822V135.694H165.198V139.437H163.325V141.309H168.005V133.822H163.325Z" fill="#6C63FF"/>
<path d="M168.005 170.32H163.325V177.806H168.005V170.32Z" fill="#6C63FF"/>
<path d="M163.325 158.154V160.026H165.198V163.769H163.325V165.64H168.005V158.154H163.325Z" fill="#6C63FF"/>
<path d="M168.005 194.651H163.325V202.137H168.005V194.651Z" fill="#6C63FF"/>
<path d="M168.005 226.469H163.325V233.955H168.005V226.469Z" fill="#6C63FF"/>
<path d="M163.325 182.485V184.357H165.198V188.1H163.325V189.972H168.005V182.485H163.325Z" fill="#6C63FF"/>
<path d="M163.325 239.57V241.442H165.198V245.185H163.325V247.057H168.005V239.57H163.325Z" fill="#6C63FF"/>
<path d="M190.468 38.3687H185.788V45.8553H190.468V38.3687Z" fill="#6C63FF"/>
<path d="M190.468 97.3254H185.788V104.812H190.468V97.3254Z" fill="#6C63FF"/>
<path d="M192.34 218.046H185.788V218.982H192.34V218.046Z" fill="#6C63FF"/>
<path d="M185.788 60.8286V62.7H187.661V66.4434H185.788V68.3148H190.468V60.8286H185.788Z" fill="#6C63FF"/>
<path d="M185.788 72.9939V74.8658H187.661V78.6092H185.788V80.4806H190.468V72.9939H185.788Z" fill="#6C63FF"/>
<path d="M185.788 85.1597V87.0317H187.661V90.7745H185.788V92.6465H190.468V85.1597H185.788Z" fill="#6C63FF"/>
<path d="M190.468 121.657H185.788V129.143H190.468V121.657Z" fill="#6C63FF"/>
<path d="M185.788 109.491V111.363H187.661V115.106H185.788V116.978H190.468V109.491H185.788Z" fill="#6C63FF"/>
<path d="M190.468 145.988H185.788V153.475H190.468V145.988Z" fill="#6C63FF"/>
<path d="M185.788 133.822V135.694H187.661V139.437H185.788V141.309H190.468V133.822H185.788Z" fill="#6C63FF"/>
<path d="M190.468 170.32H185.788V177.806H190.468V170.32Z" fill="#6C63FF"/>
<path d="M185.788 158.154V160.026H187.661V163.769H185.788V165.64H190.468V158.154H185.788Z" fill="#6C63FF"/>
<path d="M190.468 194.651H185.788V202.137H190.468V194.651Z" fill="#6C63FF"/>
<path d="M190.468 226.469H185.788V233.955H190.468V226.469Z" fill="#6C63FF"/>
<path d="M185.788 182.485V184.357H187.661V188.1H185.788V189.972H190.468V182.485H185.788Z" fill="#6C63FF"/>
<path d="M185.788 239.57V241.442H187.661V245.185H185.788V247.057H190.468V239.57H185.788Z" fill="#6C63FF"/>
<path d="M120.271 226.469V228.34H122.143V232.084H120.271V233.955H124.951V226.469H120.271Z" fill="#6C63FF"/>
<path d="M120.271 238.635V240.506H122.143V244.25H120.271V246.121H124.951V238.635H120.271Z" fill="#6C63FF"/>
<path d="M95.9361 97.3255V99.1969H97.8077V102.94H95.9361V104.812H100.616V97.3255H95.9361Z" fill="#6C63FF"/>
<path d="M95.9361 145.053V146.924H97.8077V150.667H95.9361V152.539H100.616V145.053H95.9361Z" fill="#6C63FF"/>
<path d="M95.9361 157.218V159.09H97.8077V162.833H95.9361V164.705H100.616V157.218H95.9361Z" fill="#6C63FF"/>
<path d="M95.9361 181.55V183.421H97.8077V187.164H95.9361V189.036H100.616V181.55H95.9361Z" fill="#6C63FF"/>
<path d="M95.9361 216.174V218.046H97.8077V221.79H95.9361V223.661H100.616V216.174H95.9361Z" fill="#6C63FF"/>
<path d="M95.9361 226.469V228.34H97.8077V232.084H95.9361V233.955H100.616V226.469H95.9361Z" fill="#6C63FF"/>
<path d="M149.286 40.2403H144.606V47.7269H149.286V40.2403Z" fill="#6C63FF"/>
<path d="M149.286 52.406H144.606V59.8926H149.286V52.406Z" fill="#6C63FF"/>
<path d="M149.286 65.5075H142.734V66.4433H149.286V65.5075Z" fill="#6C63FF"/>
<path d="M149.286 125.4H142.734V126.336H149.286V125.4Z" fill="#6C63FF"/>
<path d="M149.286 135.694H142.734V136.63H149.286V135.694Z" fill="#6C63FF"/>
<path d="M144.606 73.9301V75.8015H146.478V79.5449H144.606V81.4163H149.286V73.9301H144.606Z" fill="#6C63FF"/>
<path d="M144.606 97.3255V99.1969H146.478V102.94H144.606V104.812H149.286V97.3255H144.606Z" fill="#6C63FF"/>
<path d="M144.606 145.053V146.924H146.478V150.667H144.606V152.539H149.286V145.053H144.606Z" fill="#6C63FF"/>
<path d="M202.636 121.657H197.956V129.143H202.636V121.657Z" fill="#6C63FF"/>
<path d="M202.636 133.822H197.956V141.309H202.636V133.822Z" fill="#6C63FF"/>
<path d="M202.636 146.924H196.084V147.86H202.636V146.924Z" fill="#6C63FF"/>
<path d="M202.636 206.817H196.084V207.752H202.636V206.817Z" fill="#6C63FF"/>
<path d="M202.636 217.111H196.084V218.046H202.636V217.111Z" fill="#6C63FF"/>
<path d="M197.956 155.346V157.218H199.828V160.961H197.956V162.833H202.636V155.346H197.956Z" fill="#6C63FF"/>
<path d="M197.956 178.742V180.614H199.828V184.357H197.956V186.229H202.636V178.742H197.956Z" fill="#6C63FF"/>
<path d="M197.956 226.469V228.34H199.828V232.084H197.956V233.955H202.636V226.469H197.956Z" fill="#6C63FF"/>
<path d="M217.611 40.2403H212.931V47.7269H217.611V40.2403Z" fill="#6C63FF"/>
<path d="M233.522 38.3687H228.843V45.8553H233.522V38.3687Z" fill="#6C63FF"/>
<path d="M241.946 38.3687H237.266V45.8553H241.946V38.3687Z" fill="#6C63FF"/>
<path d="M241.946 60.8284H237.266V68.315H241.946V60.8284Z" fill="#6C63FF"/>
<path d="M251.306 49.5985H246.626V57.0851H251.306V49.5985Z" fill="#6C63FF"/>
<path d="M251.306 61.7642H246.626V69.2508H251.306V61.7642Z" fill="#6C63FF"/>
<path d="M241.946 85.1598H237.266V92.6463H241.946V85.1598Z" fill="#6C63FF"/>
<path d="M251.306 97.3254H246.626V104.812H251.306V97.3254Z" fill="#6C63FF"/>
<path d="M241.946 143.181H237.266V150.667H241.946V143.181Z" fill="#6C63FF"/>
<path d="M233.522 97.3254H228.843V104.812H233.522V97.3254Z" fill="#6C63FF"/>
<path d="M217.611 52.406H212.931V59.8926H217.611V52.406Z" fill="#6C63FF"/>
<path d="M217.611 169.384H212.931V176.87H217.611V169.384Z" fill="#6C63FF"/>
<path d="M217.611 193.715H212.931V201.202H217.611V193.715Z" fill="#6C63FF"/>
<path d="M217.611 205.881H212.931V213.367H217.611V205.881Z" fill="#6C63FF"/>
<path d="M217.611 65.5075H211.059V66.4433H217.611V65.5075Z" fill="#6C63FF"/>
<path d="M242.882 76.7374H236.33V77.6732H242.882V76.7374Z" fill="#6C63FF"/>
<path d="M217.611 125.4H211.059V126.336H217.611V125.4Z" fill="#6C63FF"/>
<path d="M217.611 135.694H211.059V136.63H217.611V135.694Z" fill="#6C63FF"/>
<path d="M242.882 195.587H236.33V196.522H242.882V195.587Z" fill="#6C63FF"/>
<path d="M235.394 218.046H228.843V218.982H235.394V218.046Z" fill="#6C63FF"/>
<path d="M212.931 73.9301V75.8015H214.803V79.5449H212.931V81.4163H217.611V73.9301H212.931Z" fill="#6C63FF"/>
<path d="M228.843 60.8286V62.7H230.714V66.4434H228.843V68.3148H233.523V60.8286H228.843Z" fill="#6C63FF"/>
<path d="M246.626 72.9939V74.8658H248.498V78.6092H246.626V80.4806H251.306V72.9939H246.626Z" fill="#6C63FF"/>
<path d="M246.626 109.491V111.363H248.498V115.106H246.626V116.978H251.306V109.491H246.626Z" fill="#6C63FF"/>
<path d="M246.626 121.657V123.529H248.498V127.272H246.626V129.143H251.306V121.657H246.626Z" fill="#6C63FF"/>
<path d="M246.626 84.224V86.0954H248.498V89.8388H246.626V91.7108H251.306V84.224H246.626Z" fill="#6C63FF"/>
<path d="M237.266 49.5985V51.4705H239.138V55.2132H237.266V57.0852H241.946V49.5985H237.266Z" fill="#6C63FF"/>
<path d="M241.946 109.491H237.266V116.978H241.946V109.491Z" fill="#6C63FF"/>
<path d="M241.946 131.951H237.266V139.437H241.946V131.951Z" fill="#6C63FF"/>
<path d="M237.266 120.721V122.592H239.138V126.336H237.266V128.208H241.946V120.721H237.266Z" fill="#6C63FF"/>
<path d="M228.843 72.9939V74.8658H230.714V78.6092H228.843V80.4806H233.523V72.9939H228.843Z" fill="#6C63FF"/>
<path d="M228.843 85.1597V87.0317H230.714V90.7745H228.843V92.6465H233.523V85.1597H228.843Z" fill="#6C63FF"/>
<path d="M233.522 121.657H228.843V129.143H233.522V121.657Z" fill="#6C63FF"/>
<path d="M228.843 109.491V111.363H230.714V115.106H228.843V116.978H233.523V109.491H228.843Z" fill="#6C63FF"/>
<path d="M233.522 145.988H228.843V153.475H233.522V145.988Z" fill="#6C63FF"/>
<path d="M228.843 133.822V135.694H230.714V139.437H228.843V141.309H233.523V133.822H228.843Z" fill="#6C63FF"/>
<path d="M233.522 170.32H228.843V177.806H233.522V170.32Z" fill="#6C63FF"/>
<path d="M241.946 168.448H237.266V175.934H241.946V168.448Z" fill="#6C63FF"/>
<path d="M228.843 158.154V160.026H230.714V163.769H228.843V165.64H233.523V158.154H228.843Z" fill="#6C63FF"/>
<path d="M246.626 158.154V160.026H248.498V163.769H246.626V165.64H251.306V158.154H246.626Z" fill="#6C63FF"/>
<path d="M299.04 49.5985H294.36V57.0851H299.04V49.5985Z" fill="#6C63FF"/>
<path d="M299.04 61.7642H294.36V69.2508H299.04V61.7642Z" fill="#6C63FF"/>
<path d="M299.04 97.3254H294.36V104.812H299.04V97.3254Z" fill="#6C63FF"/>
<path d="M294.36 72.9939V74.8658H296.232V78.6092H294.36V80.4806H299.04V72.9939H294.36Z" fill="#6C63FF"/>
<path d="M294.36 109.491V111.363H296.232V115.106H294.36V116.978H299.04V109.491H294.36Z" fill="#6C63FF"/>
<path d="M294.36 121.657V123.529H296.232V127.272H294.36V129.143H299.04V121.657H294.36Z" fill="#6C63FF"/>
<path d="M294.36 84.224V86.0954H296.232V89.8388H294.36V91.7108H299.04V84.224H294.36Z" fill="#6C63FF"/>
<path d="M294.36 158.154V160.026H296.232V163.769H294.36V165.64H299.04V158.154H294.36Z" fill="#6C63FF"/>
<path d="M233.522 194.651H228.843V202.137H233.522V194.651Z" fill="#6C63FF"/>
<path d="M241.946 180.614H237.266V188.1H241.946V180.614Z" fill="#6C63FF"/>
<path d="M233.522 226.469H228.843V233.955H233.522V226.469Z" fill="#6C63FF"/>
<path d="M241.946 204.009H237.266V211.496H241.946V204.009Z" fill="#6C63FF"/>
<path d="M228.843 182.485V184.357H230.714V188.1H228.843V189.972H233.523V182.485H228.843Z" fill="#6C63FF"/>
<path d="M228.843 239.57V241.442H230.714V245.185H228.843V247.057H233.523V239.57H228.843Z" fill="#6C63FF"/>
<path d="M285 38.3687H280.321V45.8553H285V38.3687Z" fill="#6C63FF"/>
<path d="M285 97.3254H280.321V104.812H285V97.3254Z" fill="#6C63FF"/>
<path d="M286.872 218.046H280.321V218.982H286.872V218.046Z" fill="#6C63FF"/>
<path d="M280.32 60.8286V62.7H282.193V66.4434H280.32V68.3148H285V60.8286H280.32Z" fill="#6C63FF"/>
<path d="M280.32 72.9939V74.8658H282.193V78.6092H280.32V80.4806H285V72.9939H280.32Z" fill="#6C63FF"/>
<path d="M280.32 85.1597V87.0317H282.193V90.7745H280.32V92.6465H285V85.1597H280.32Z" fill="#6C63FF"/>
<path d="M285 121.657H280.321V129.143H285V121.657Z" fill="#6C63FF"/>
<path d="M280.32 109.491V111.363H282.193V115.106H280.32V116.978H285V109.491H280.32Z" fill="#6C63FF"/>
<path d="M285 145.988H280.321V153.475H285V145.988Z" fill="#6C63FF"/>
<path d="M280.32 133.822V135.694H282.193V139.437H280.32V141.309H285V133.822H280.32Z" fill="#6C63FF"/>
<path d="M285 170.32H280.321V177.806H285V170.32Z" fill="#6C63FF"/>
<path d="M280.32 158.154V160.026H282.193V163.769H280.32V165.64H285V158.154H280.32Z" fill="#6C63FF"/>
<path d="M285 194.651H280.321V202.137H285V194.651Z" fill="#6C63FF"/>
<path d="M285 226.469H280.321V233.955H285V226.469Z" fill="#6C63FF"/>
<path d="M280.32 182.485V184.357H282.193V188.1H280.32V189.972H285V182.485H280.32Z" fill="#6C63FF"/>
<path d="M280.32 239.57V241.442H282.193V245.185H280.32V247.057H285V239.57H280.32Z" fill="#6C63FF"/>
<path d="M307.463 38.3687H302.784V45.8553H307.463V38.3687Z" fill="#6C63FF"/>
<path d="M307.463 97.3254H302.784V104.812H307.463V97.3254Z" fill="#6C63FF"/>
<path d="M309.335 218.046H302.784V218.982H309.335V218.046Z" fill="#6C63FF"/>
<path d="M302.783 60.8286V62.7H304.656V66.4434H302.783V68.3148H307.463V60.8286H302.783Z" fill="#6C63FF"/>
<path d="M302.783 72.9939V74.8658H304.656V78.6092H302.783V80.4806H307.463V72.9939H302.783Z" fill="#6C63FF"/>
<path d="M302.783 85.1597V87.0317H304.656V90.7745H302.783V92.6465H307.463V85.1597H302.783Z" fill="#6C63FF"/>
<path d="M307.463 121.657H302.784V129.143H307.463V121.657Z" fill="#6C63FF"/>
<path d="M302.783 109.491V111.363H304.656V115.106H302.783V116.978H307.463V109.491H302.783Z" fill="#6C63FF"/>
<path d="M307.463 145.988H302.784V153.475H307.463V145.988Z" fill="#6C63FF"/>
<path d="M302.783 133.822V135.694H304.656V139.437H302.783V141.309H307.463V133.822H302.783Z" fill="#6C63FF"/>
<path d="M307.463 170.32H302.784V177.806H307.463V170.32Z" fill="#6C63FF"/>
<path d="M302.783 158.154V160.026H304.656V163.769H302.783V165.64H307.463V158.154H302.783Z" fill="#6C63FF"/>
<path d="M307.463 194.651H302.784V202.137H307.463V194.651Z" fill="#6C63FF"/>
<path d="M307.463 226.469H302.784V233.955H307.463V226.469Z" fill="#6C63FF"/>
<path d="M302.783 182.485V184.357H304.656V188.1H302.783V189.972H307.463V182.485H302.783Z" fill="#6C63FF"/>
<path d="M302.783 239.57V241.442H304.656V245.185H302.783V247.057H307.463V239.57H302.783Z" fill="#6C63FF"/>
<path d="M237.266 226.469V228.34H239.138V232.084H237.266V233.955H241.946V226.469H237.266Z" fill="#6C63FF"/>
<path d="M237.266 238.635V240.506H239.138V244.25H237.266V246.121H241.946V238.635H237.266Z" fill="#6C63FF"/>
<path d="M212.931 97.3255V99.1969H214.803V102.94H212.931V104.812H217.611V97.3255H212.931Z" fill="#6C63FF"/>
<path d="M212.931 145.053V146.924H214.803V150.667H212.931V152.539H217.611V145.053H212.931Z" fill="#6C63FF"/>
<path d="M212.931 157.218V159.09H214.803V162.833H212.931V164.705H217.611V157.218H212.931Z" fill="#6C63FF"/>
<path d="M212.931 181.55V183.421H214.803V187.164H212.931V189.036H217.611V181.55H212.931Z" fill="#6C63FF"/>
<path d="M212.931 216.174V218.046H214.803V221.79H212.931V223.661H217.611V216.174H212.931Z" fill="#6C63FF"/>
<path d="M212.931 226.469V228.34H214.803V232.084H212.931V233.955H217.611V226.469H212.931Z" fill="#6C63FF"/>
<path d="M266.281 40.2403H261.601V47.7269H266.281V40.2403Z" fill="#6C63FF"/>
<path d="M266.281 52.406H261.601V59.8926H266.281V52.406Z" fill="#6C63FF"/>
<path d="M266.281 65.5075H259.729V66.4433H266.281V65.5075Z" fill="#6C63FF"/>
<path d="M266.281 125.4H259.729V126.336H266.281V125.4Z" fill="#6C63FF"/>
<path d="M266.281 135.694H259.729V136.63H266.281V135.694Z" fill="#6C63FF"/>
<path d="M261.601 73.9301V75.8015H263.473V79.5449H261.601V81.4163H266.281V73.9301H261.601Z" fill="#6C63FF"/>
<path d="M261.601 97.3255V99.1969H263.473V102.94H261.601V104.812H266.281V97.3255H261.601Z" fill="#6C63FF"/>
<path d="M261.601 145.053V146.924H263.473V150.667H261.601V152.539H266.281V145.053H261.601Z" fill="#6C63FF"/>
<path d="M319.631 121.657H314.951V129.143H319.631V121.657Z" fill="#6C63FF"/>
<path d="M319.631 133.822H314.951V141.309H319.631V133.822Z" fill="#6C63FF"/>
<path d="M319.631 146.924H313.079V147.86H319.631V146.924Z" fill="#6C63FF"/>
<path d="M319.631 206.817H313.079V207.752H319.631V206.817Z" fill="#6C63FF"/>
<path d="M319.631 217.111H313.079V218.046H319.631V217.111Z" fill="#6C63FF"/>
<path d="M314.951 155.346V157.218H316.823V160.961H314.951V162.833H319.631V155.346H314.951Z" fill="#6C63FF"/>
<path d="M314.951 178.742V180.614H316.823V184.357H314.951V186.229H319.631V178.742H314.951Z" fill="#6C63FF"/>
<path d="M314.951 226.469V228.34H316.823V232.084H314.951V233.955H319.631V226.469H314.951Z" fill="#6C63FF"/>
<path d="M334.606 40.2403H329.927V47.7269H334.606V40.2403Z" fill="#6C63FF"/>
<path d="M350.518 38.3687H345.838V45.8553H350.518V38.3687Z" fill="#6C63FF"/>
<path d="M358.941 38.3687H354.261V45.8553H358.941V38.3687Z" fill="#6C63FF"/>
<path d="M358.941 60.8284H354.261V68.315H358.941V60.8284Z" fill="#6C63FF"/>
<path d="M368.301 49.5985H363.621V57.0851H368.301V49.5985Z" fill="#6C63FF"/>
<path d="M368.301 61.7642H363.621V69.2508H368.301V61.7642Z" fill="#6C63FF"/>
<path d="M358.941 85.1598H354.261V92.6463H358.941V85.1598Z" fill="#6C63FF"/>
<path d="M368.301 97.3254H363.621V104.812H368.301V97.3254Z" fill="#6C63FF"/>
<path d="M358.941 143.181H354.261V150.667H358.941V143.181Z" fill="#6C63FF"/>
<path d="M350.518 97.3254H345.838V104.812H350.518V97.3254Z" fill="#6C63FF"/>
<path d="M334.606 52.406H329.927V59.8926H334.606V52.406Z" fill="#6C63FF"/>
<path d="M334.606 169.384H329.927V176.87H334.606V169.384Z" fill="#6C63FF"/>
<path d="M334.606 193.715H329.927V201.202H334.606V193.715Z" fill="#6C63FF"/>
<path d="M334.606 205.881H329.927V213.367H334.606V205.881Z" fill="#6C63FF"/>
<path d="M334.606 65.5075H328.055V66.4433H334.606V65.5075Z" fill="#6C63FF"/>
<path d="M359.877 76.7374H353.326V77.6732H359.877V76.7374Z" fill="#6C63FF"/>
<path d="M334.606 125.4H328.055V126.336H334.606V125.4Z" fill="#6C63FF"/>
<path d="M334.606 135.694H328.055V136.63H334.606V135.694Z" fill="#6C63FF"/>
<path d="M359.877 195.587H353.326V196.522H359.877V195.587Z" fill="#6C63FF"/>
<path d="M352.39 218.046H345.838V218.982H352.39V218.046Z" fill="#6C63FF"/>
<path d="M329.926 73.9301V75.8015H331.798V79.5449H329.926V81.4163H334.607V73.9301H329.926Z" fill="#6C63FF"/>
<path d="M345.838 60.8286V62.7H347.709V66.4434H345.838V68.3148H350.518V60.8286H345.838Z" fill="#6C63FF"/>
<path d="M363.621 72.9939V74.8658H365.493V78.6092H363.621V80.4806H368.301V72.9939H363.621Z" fill="#6C63FF"/>
<path d="M363.621 109.491V111.363H365.493V115.106H363.621V116.978H368.301V109.491H363.621Z" fill="#6C63FF"/>
<path d="M363.621 121.657V123.529H365.493V127.272H363.621V129.143H368.301V121.657H363.621Z" fill="#6C63FF"/>
<path d="M363.621 84.224V86.0954H365.493V89.8388H363.621V91.7108H368.301V84.224H363.621Z" fill="#6C63FF"/>
<path d="M354.262 49.5985V51.4705H356.133V55.2132H354.262V57.0852H358.941V49.5985H354.262Z" fill="#6C63FF"/>
<path d="M358.941 109.491H354.261V116.978H358.941V109.491Z" fill="#6C63FF"/>
<path d="M358.941 131.951H354.261V139.437H358.941V131.951Z" fill="#6C63FF"/>
<path d="M354.262 120.721V122.592H356.133V126.336H354.262V128.208H358.941V120.721H354.262Z" fill="#6C63FF"/>
<path d="M345.838 72.9939V74.8658H347.709V78.6092H345.838V80.4806H350.518V72.9939H345.838Z" fill="#6C63FF"/>
<path d="M345.838 85.1597V87.0317H347.709V90.7745H345.838V92.6465H350.518V85.1597H345.838Z" fill="#6C63FF"/>
<path d="M350.518 121.657H345.838V129.143H350.518V121.657Z" fill="#6C63FF"/>
<path d="M345.838 109.491V111.363H347.709V115.106H345.838V116.978H350.518V109.491H345.838Z" fill="#6C63FF"/>
<path d="M350.518 145.988H345.838V153.475H350.518V145.988Z" fill="#6C63FF"/>
<path d="M345.838 133.822V135.694H347.709V139.437H345.838V141.309H350.518V133.822H345.838Z" fill="#6C63FF"/>
<path d="M350.518 170.32H345.838V177.806H350.518V170.32Z" fill="#6C63FF"/>
<path d="M358.941 168.448H354.261V175.934H358.941V168.448Z" fill="#6C63FF"/>
<path d="M345.838 158.154V160.026H347.709V163.769H345.838V165.64H350.518V158.154H345.838Z" fill="#6C63FF"/>
<path d="M363.621 158.154V160.026H365.493V163.769H363.621V165.64H368.301V158.154H363.621Z" fill="#6C63FF"/>
<path d="M416.035 49.5985H411.355V57.0851H416.035V49.5985Z" fill="#6C63FF"/>
<path d="M416.035 61.7642H411.355V69.2508H416.035V61.7642Z" fill="#6C63FF"/>
<path d="M416.035 97.3254H411.355V104.812H416.035V97.3254Z" fill="#6C63FF"/>
<path d="M411.355 72.9939V74.8658H413.227V78.6092H411.355V80.4806H416.035V72.9939H411.355Z" fill="#6C63FF"/>
<path d="M411.355 109.491V111.363H413.227V115.106H411.355V116.978H416.035V109.491H411.355Z" fill="#6C63FF"/>
<path d="M411.355 121.657V123.529H413.227V127.272H411.355V129.143H416.035V121.657H411.355Z" fill="#6C63FF"/>
<path d="M411.355 84.224V86.0954H413.227V89.8388H411.355V91.7108H416.035V84.224H411.355Z" fill="#6C63FF"/>
<path d="M411.355 158.154V160.026H413.227V163.769H411.355V165.64H416.035V158.154H411.355Z" fill="#6C63FF"/>
<path d="M350.518 194.651H345.838V202.137H350.518V194.651Z" fill="#6C63FF"/>
<path d="M358.941 180.614H354.261V188.1H358.941V180.614Z" fill="#6C63FF"/>
<path d="M350.518 226.469H345.838V233.955H350.518V226.469Z" fill="#6C63FF"/>
<path d="M358.941 204.009H354.261V211.496H358.941V204.009Z" fill="#6C63FF"/>
<path d="M345.838 182.485V184.357H347.709V188.1H345.838V189.972H350.518V182.485H345.838Z" fill="#6C63FF"/>
<path d="M345.838 239.57V241.442H347.709V245.185H345.838V247.057H350.518V239.57H345.838Z" fill="#6C63FF"/>
<path d="M401.996 38.3687H397.316V45.8553H401.996V38.3687Z" fill="#6C63FF"/>
<path d="M401.996 97.3254H397.316V104.812H401.996V97.3254Z" fill="#6C63FF"/>
<path d="M403.867 218.046H397.316V218.982H403.867V218.046Z" fill="#6C63FF"/>
<path d="M397.316 60.8286V62.7H399.188V66.4434H397.316V68.3148H401.996V60.8286H397.316Z" fill="#6C63FF"/>
<path d="M397.316 72.9939V74.8658H399.188V78.6092H397.316V80.4806H401.996V72.9939H397.316Z" fill="#6C63FF"/>
<path d="M397.316 85.1597V87.0317H399.188V90.7745H397.316V92.6465H401.996V85.1597H397.316Z" fill="#6C63FF"/>
<path d="M401.996 121.657H397.316V129.143H401.996V121.657Z" fill="#6C63FF"/>
<path d="M397.316 109.491V111.363H399.188V115.106H397.316V116.978H401.996V109.491H397.316Z" fill="#6C63FF"/>
<path d="M401.996 145.988H397.316V153.475H401.996V145.988Z" fill="#6C63FF"/>
<path d="M397.316 133.822V135.694H399.188V139.437H397.316V141.309H401.996V133.822H397.316Z" fill="#6C63FF"/>
<path d="M401.996 170.32H397.316V177.806H401.996V170.32Z" fill="#6C63FF"/>
<path d="M397.316 158.154V160.026H399.188V163.769H397.316V165.64H401.996V158.154H397.316Z" fill="#6C63FF"/>
<path d="M401.996 194.651H397.316V202.137H401.996V194.651Z" fill="#6C63FF"/>
<path d="M401.996 226.469H397.316V233.955H401.996V226.469Z" fill="#6C63FF"/>
<path d="M397.316 182.485V184.357H399.188V188.1H397.316V189.972H401.996V182.485H397.316Z" fill="#6C63FF"/>
<path d="M397.316 239.57V241.442H399.188V245.185H397.316V247.057H401.996V239.57H397.316Z" fill="#6C63FF"/>
<path d="M424.459 38.3687H419.779V45.8553H424.459V38.3687Z" fill="#6C63FF"/>
<path d="M424.459 97.3254H419.779V104.812H424.459V97.3254Z" fill="#6C63FF"/>
<path d="M426.331 218.046H419.779V218.982H426.331V218.046Z" fill="#6C63FF"/>
<path d="M419.779 60.8286V62.7H421.651V66.4434H419.779V68.3148H424.459V60.8286H419.779Z" fill="#6C63FF"/>
<path d="M419.779 72.9939V74.8658H421.651V78.6092H419.779V80.4806H424.459V72.9939H419.779Z" fill="#6C63FF"/>
<path d="M419.779 85.1597V87.0317H421.651V90.7745H419.779V92.6465H424.459V85.1597H419.779Z" fill="#6C63FF"/>
<path d="M424.459 121.657H419.779V129.143H424.459V121.657Z" fill="#6C63FF"/>
<path d="M419.779 109.491V111.363H421.651V115.106H419.779V116.978H424.459V109.491H419.779Z" fill="#6C63FF"/>
<path d="M424.459 145.988H419.779V153.475H424.459V145.988Z" fill="#6C63FF"/>
<path d="M419.779 133.822V135.694H421.651V139.437H419.779V141.309H424.459V133.822H419.779Z" fill="#6C63FF"/>
<path d="M424.459 170.32H419.779V177.806H424.459V170.32Z" fill="#6C63FF"/>
<path d="M419.779 158.154V160.026H421.651V163.769H419.779V165.64H424.459V158.154H419.779Z" fill="#6C63FF"/>
<path d="M424.459 194.651H419.779V202.137H424.459V194.651Z" fill="#6C63FF"/>
<path d="M424.459 226.469H419.779V233.955H424.459V226.469Z" fill="#6C63FF"/>
<path d="M419.779 182.485V184.357H421.651V188.1H419.779V189.972H424.459V182.485H419.779Z" fill="#6C63FF"/>
<path d="M419.779 239.57V241.442H421.651V245.185H419.779V247.057H424.459V239.57H419.779Z" fill="#6C63FF"/>
<path d="M354.262 226.469V228.34H356.133V232.084H354.262V233.955H358.941V226.469H354.262Z" fill="#6C63FF"/>
<path d="M354.262 238.635V240.506H356.133V244.25H354.262V246.121H358.941V238.635H354.262Z" fill="#6C63FF"/>
<path d="M329.926 97.3255V99.1969H331.798V102.94H329.926V104.812H334.607V97.3255H329.926Z" fill="#6C63FF"/>
<path d="M329.926 145.053V146.924H331.798V150.667H329.926V152.539H334.607V145.053H329.926Z" fill="#6C63FF"/>
<path d="M329.926 157.218V159.09H331.798V162.833H329.926V164.705H334.607V157.218H329.926Z" fill="#6C63FF"/>
<path d="M329.926 181.55V183.421H331.798V187.164H329.926V189.036H334.607V181.55H329.926Z" fill="#6C63FF"/>
<path d="M329.926 216.174V218.046H331.798V221.79H329.926V223.661H334.607V216.174H329.926Z" fill="#6C63FF"/>
<path d="M329.926 226.469V228.34H331.798V232.084H329.926V233.955H334.607V226.469H329.926Z" fill="#6C63FF"/>
<path d="M383.276 40.2403H378.596V47.7269H383.276V40.2403Z" fill="#6C63FF"/>
<path d="M383.276 52.406H378.596V59.8926H383.276V52.406Z" fill="#6C63FF"/>
<path d="M383.276 65.5075H376.725V66.4433H383.276V65.5075Z" fill="#6C63FF"/>
<path d="M383.276 125.4H376.725V126.336H383.276V125.4Z" fill="#6C63FF"/>
<path d="M383.276 135.694H376.725V136.63H383.276V135.694Z" fill="#6C63FF"/>
<path d="M378.596 73.9301V75.8015H380.469V79.5449H378.596V81.4163H383.276V73.9301H378.596Z" fill="#6C63FF"/>
<path d="M378.596 97.3255V99.1969H380.469V102.94H378.596V104.812H383.276V97.3255H378.596Z" fill="#6C63FF"/>
<path d="M378.596 145.053V146.924H380.469V150.667H378.596V152.539H383.276V145.053H378.596Z" fill="#6C63FF"/>
<path d="M436.626 121.657H431.946V129.143H436.626V121.657Z" fill="#6C63FF"/>
<path d="M436.626 133.822H431.946V141.309H436.626V133.822Z" fill="#6C63FF"/>
<path d="M436.626 146.924H430.074V147.86H436.626V146.924Z" fill="#6C63FF"/>
<path d="M436.626 206.817H430.074V207.752H436.626V206.817Z" fill="#6C63FF"/>
<path d="M436.626 217.111H430.074V218.046H436.626V217.111Z" fill="#6C63FF"/>
<path d="M431.946 155.346V157.218H433.818V160.961H431.946V162.833H436.626V155.346H431.946Z" fill="#6C63FF"/>
<path d="M431.946 178.742V180.614H433.818V184.357H431.946V186.229H436.626V178.742H431.946Z" fill="#6C63FF"/>
<path d="M431.946 226.469V228.34H433.818V232.084H431.946V233.955H436.626V226.469H431.946Z" fill="#6C63FF"/>
<path d="M632 428.451H130.055V430H632V428.451Z" fill="#2F2E41"/>
<path d="M233.807 245.196V276.73L238.052 296.135C238.052 296.135 237.446 308.263 238.052 311.902C238.659 315.54 237.446 321.604 233.807 321.604C230.168 321.604 228.348 330.701 228.348 330.701C228.348 330.701 227.135 334.339 224.103 334.945C221.07 335.552 221.07 334.945 221.07 334.945L218.644 341.01L168.305 374.362L178.009 398.619C178.009 398.619 193.171 393.161 194.384 391.342C195.597 389.523 205.908 393.767 205.908 389.523C205.908 385.278 207.727 374.362 211.366 373.756C215.005 373.149 245.331 359.202 245.331 359.202C245.331 359.202 261.1 341.616 262.313 334.945C263.526 328.275 268.984 309.476 268.984 309.476L284.147 334.945V385.884L281.721 413.173L308.407 409.534C308.407 409.534 305.981 392.555 308.407 390.129C310.833 387.703 314.472 358.596 312.046 354.957C309.62 351.319 313.259 334.945 312.046 332.52C310.833 330.094 311.439 312.508 308.407 307.657C305.374 302.806 287.179 253.08 287.179 253.08L233.807 245.196Z" fill="#2F2E41"/>
<path d="M285.36 411.96C285.36 411.96 276.262 427.12 282.327 428.939C288.392 430.759 299.916 428.939 301.129 428.939C302.342 428.939 324.176 429.546 324.176 429.546C324.176 429.546 338.732 426.514 338.732 422.269C338.732 418.024 329.634 418.024 326.602 417.418C323.569 416.811 304.768 409.534 304.768 409.534L285.36 411.96Z" fill="#2F2E41"/>
<path d="M171.09 375.046C171.09 375.046 153.561 372.725 154.302 379.013C155.043 385.301 161.293 395.15 161.775 396.263C162.101 397.017 165.932 406.559 168.371 412.64C170.133 417.097 172.781 421.151 176.155 424.557C178.54 426.94 181.138 428.85 182.843 428.112C186.738 426.425 183.122 418.078 182.474 415.055C181.825 412.031 181.03 391.889 181.03 391.889L171.09 375.046Z" fill="#2F2E41"/>
<path d="M292.941 144.835L312.349 99.9607C312.349 99.9607 310.53 95.7158 306.284 96.3222C306.284 96.3222 300.522 81.4651 289.605 81.4651C289.605 81.4651 273.23 72.369 268.378 81.4651C268.378 81.4651 258.067 90.5613 258.674 99.0511C259.28 107.541 259.887 113.605 259.887 113.605C259.887 113.605 250.183 114.818 252.002 119.669C253.822 124.52 254.428 124.52 252.002 126.34L249.576 128.159C249.576 128.159 199.236 173.64 227.135 240.345L229.561 250.654V260.357C229.561 260.357 290.818 260.963 290.818 260.357C290.818 259.75 289.605 256.112 292.031 253.686C294.457 251.261 294.457 247.622 294.457 247.622C294.457 247.622 292.031 235.494 293.244 231.855C294.457 228.217 295.064 212.45 292.638 208.812C290.212 205.173 291.425 176.065 291.425 176.065L296.883 165.756L295.064 159.692L293.244 153.628L292.941 144.835Z" fill="#8985A8"/>
<path opacity="0.1" d="M287.786 266.421C287.786 266.421 280.508 246.409 281.114 242.771C281.721 239.132 279.901 231.855 279.901 231.855L277.475 182.736C277.475 182.736 287.786 139.074 264.739 131.797C264.739 131.797 258.907 134.342 254.129 142.529C249.403 144.633 243.67 149.959 242.298 163.331C239.872 186.981 250.789 247.622 256.248 257.931C261.706 268.24 265.345 275.517 265.345 275.517L271.05 272.982C271.286 273.449 271.41 273.698 271.41 273.698L287.786 266.421Z" fill="black"/>
<path d="M291.122 139.378C292.126 139.378 292.941 138.563 292.941 137.558C292.941 136.554 292.126 135.739 291.122 135.739C290.117 135.739 289.302 136.554 289.302 137.558C289.302 138.563 290.117 139.378 291.122 139.378Z" fill="#F2F2F2"/>
<path d="M291.728 137.558H290.515V166.06H291.728V137.558Z" fill="#3F3D56"/>
<path d="M269.287 268.543L274.139 278.852C274.139 278.852 285.056 275.214 285.056 273.395C285.056 271.575 280.204 263.692 280.204 263.692L269.287 268.543Z" fill="#FFB8B8"/>
<path d="M262.313 131.797C262.313 131.797 248.363 137.861 245.937 161.512C243.511 185.162 254.428 245.803 259.887 256.112C265.345 266.421 268.984 273.698 268.984 273.698L285.36 266.421C285.36 266.421 278.082 246.409 278.688 242.771C279.295 239.132 277.475 231.855 277.475 231.855L275.049 182.736C275.049 182.736 285.36 139.074 262.313 131.797Z" fill="#8985A8"/>
</g>
<defs>
<clipPath id="clip0_202_16">
<rect width="632" height="430" fill="white"/>
</clipPath>
</defs>
</svg>
